<?xml version="1.0" encoding="utf-8"?>
<!-- Generator: Adobe Illustrator 27.8.0, SVG Export Plug-In . SVG Version: 6.00 Build 0)  -->
<svg version="1.1" id="Calque_1" xmlns="http://www.w3.org/2000/svg" xmlns:xlink="http://www.w3.org/1999/xlink" x="0px" y="0px"
	 viewBox="0 0 1334.532 436.115" style="enable-background:new 0 0 1334.532 436.115;" xml:space="preserve">
<style type="text/css">
	.st0{fill:#FCB802;}
	.st1{fill:#2F2F2F;}
	.st2{fill:none;stroke:#2F2F2F;stroke-width:7;stroke-miterlimit:10;}
</style>
<g>
	<path class="st0" d="M1248.621,436.115H85.911C38.464,436.115,0,397.651,0,350.204V85.911C0,38.464,38.464,0,85.911,0h1162.71
		c47.447,0,85.911,38.464,85.911,85.911v264.293C1334.532,397.651,1296.068,436.115,1248.621,436.115z"/>
	<g>
		<g>
			<path class="st1" d="M268.281,260.613c8.705,5.113,10.817,13.655,12.697,22.284c3.603,16.538,1.92,33.324,1.89,49.988
				c-0.029,16.27-16.57,32.263-32.811,32.376c-10.612,0.074-21.273-0.136-31.822-1.154c-4.332-0.418-8.427-3.294-12.496-4.996
				c-14.334,13.514-31.535,10.393-48.219,6.681c-4.911-1.093-8.806-6.748-13.428-10.526c-14.132,3.461-29.392,4.271-43.964-2.008
				c-7.482-3.224-12.675-9.966-15.746-17.729c-5.277-13.339-4.069-27.391-3.859-41.259c0.101-6.667,1.122-13.326,1.838-19.976
				c0.737-6.845,3.494-12.543,9.531-16.367c1.776-1.125,3.335-2.592,5.387-4.213c-8.263-5.451-14.538-12.227-16.093-21.433
				c-1.522-9.006-1.264-18.322-1.646-27.508c-0.211-5.063-0.241-10.139-0.162-15.206c0.283-18.283,0.48-36.571,1.049-54.846
				c0.293-9.41,0.386-18.982,2.22-28.15c2.259-11.291,9.68-19.95,18.167-27.51c4.033-3.593,8.08-7.198,12.37-10.47
				c9.49-7.238,20.737-6.702,31.804-6.732c9.078-0.024,18.157,0.042,27.235,0.038c1.66-0.001,3.32-0.207,4.98-0.209
				c17.998-0.016,35.997-0.113,53.993,0.037c8.119,0.067,16.505-0.499,24.263,1.348c5.893,1.403,12.029,5.196,16.186,9.665
				c5.977,6.426,10.483,14.292,15.146,21.834c1.914,3.096,3.442,6.894,3.682,10.47c0.65,9.688,0.456,19.43,0.726,29.148
				c0.091,3.284,0.796,6.555,0.832,9.837c0.161,14.571,0.125,29.143,0.282,43.714c0.053,4.953,0.72,9.905,0.65,14.851
				c-0.111,7.846,0.816,16.094-1.285,23.43c-2.863,9.997-7.785,19.487-16.152,26.581
				C272.929,254.806,270.901,257.676,268.281,260.613z M264.357,313.383c1.715-11.887-1.813-22.87-5.816-33.774
				c-2.086-5.683-5.994-8.478-11.919-8.225c-2.125,0.091-4.224,0.675-6.346,0.936c-4.973,0.611-7.18,3.054-7.253,8.141
				c-0.04,2.832,0.263,5.716-0.165,8.487c-1.516,9.811,3.209,18.406,12.188,21.241c2.782,0.878,4.981,2.345,3.719,5.157
				c-0.79,1.761-3.421,3.715-5.27,3.761c-3.358,0.083-6.722-1.407-10.134-1.857c-7.362-0.972-11.103-5.706-11.906-12.401
				c-1.139-9.495-2.464-19.176-1.712-28.618c0.51-6.4,3.464-13.157,10.748-16.098c5.17-2.087,10.861-3.583,15.216-6.824
				c6.71-4.994,12.634-11.1,18.592-17.034c4.915-4.895,7.957-11.173,8.873-17.907c1.047-7.688,1.046-15.543,1.139-23.33
				c0.162-13.497,0.119-26.998-0.007-40.496c-0.032-3.448-0.789-6.884-1.053-10.338c-0.353-4.608-1.501-9.413-0.647-13.811
				c3.614-18.604-4.753-32.672-16.46-45.503c-1.712-1.876-4.862-3.232-7.435-3.392c-10.929-0.68-21.893-1.139-32.841-1.087
				c-21.451,0.102-42.899,0.619-64.349,0.919c-6.062,0.085-12.167-0.397-18.175,0.182c-3.255,0.314-6.781,1.73-9.418,3.683
				c-4.867,3.604-9.338,7.799-13.664,12.061c-5.345,5.265-9.927,11.232-10.175,19.122c-0.529,16.845-0.689,33.701-1.086,50.551
				c-0.172,7.282-0.801,14.56-0.785,21.839c0.02,9.183,0.497,18.365,0.737,27.549c0.017,0.636-0.426,1.279-0.43,1.92
				c-0.045,6.979,1.192,13.267,7.599,17.652c3.202,2.192,5.62,5.493,8.633,8.004c3.317,2.763,3.804,8.858,9.724,8.503
				c5.215-0.313,9.19,2.113,13.579,4.607c6.182,3.513,8.461,8.794,9.984,15.022c1.657,6.774,0.173,13.244-0.804,19.988
				c-3.005,20.736-16.537,25.229-31.752,23.081c-2.606-0.368-4.994-2.191-3.895-5.177c0.527-1.433,2.902-3.035,4.482-3.08
				c6.01-0.169,10.739-2.603,13.885-7.458c3.831-5.912,5.822-12.527,5.439-19.705c-0.371-6.952-5.955-13.971-12.16-15.241
				c-6.272-1.284-16.536,3.004-18.43,8.854c-2.299,7.099-3.404,14.607-4.711,21.994c-0.516,2.915-0.294,5.982-0.217,8.975
				c0.159,6.208-0.256,12.542,0.849,18.589c1.57,8.588,8.617,12.25,16.132,14.925c9.326,3.32,14.877,1.15,19.366-7.44
				c0.601-1.15,1.325-2.447,2.355-3.126c3.896-2.568,5.241-6.035,4.86-10.61c-0.268-3.212,1.721-4.725,4.93-4.927
				c6.104-0.383,7.391,0.998,7.699,7.305c0.444,9.073,1.286,18.125,1.866,27.192c0.293,4.58,3.288,7.331,7.102,7.883
				c6.461,0.935,13.094,1.094,19.638,0.933c6.989-0.171,10.266-5.397,11.399-11.274c1.4-7.263,1.743-14.752,2.21-22.164
				c0.23-3.642,0.459-6.697,5.139-6.874c4.542-0.172,7.71,1.996,7.424,6.56c-0.414,6.628,2.635,11.446,5.334,17.132
				c3.324,7.002,8.359,7.37,14.09,8.292c0.98,0.158,2.004,0.077,2.972,0.28c17.113,3.578,31.111-7.683,31.111-25.052
				C264.357,319.049,264.357,316.216,264.357,313.383z"/>
			<path class="st1" d="M390.028,361.98c-7.184,0.724-14.917,1.375-22.616,2.308c-13.147,1.594-24.114-11.028-22.023-25.132
				c1.014-6.839,0.874-13.865,2.113-20.651c1.014-5.554,2.603-11.238,5.193-16.21c3.305-6.343,10.474-4.599,16.119-5.484
				c5.693-0.893,11.553-1.152,17.323-1.018c7.086,0.165,14.147,1.18,21.234,1.54c6.307,0.32,12.649,0.018,18.949,0.411
				c6.426,0.4,12.481,1.45,17.702,6.319c6.053,5.645,6.265,12.4,5.97,19.618c-0.311,7.615-1.409,15.292-0.783,22.827
				c0.813,9.793-10.363,21.17-19.743,19.879c-9.469-1.303-18.986-2.257-28.486-3.33C397.536,362.668,394.081,362.376,390.028,361.98
				z M363.841,345.899c5.983-0.397,12.179-0.895,18.385-1.202c14.452-0.716,28.705,0.808,42.835,3.841
				c4.995,1.072,6.164-0.137,6.317-5.263c0.229-7.672,0.76-15.339,0.764-23.009c0.001-1.305-1.899-3.651-3.077-3.755
				c-10.695-0.945-21.416-1.831-32.145-2.063c-8.595-0.186-17.216,0.891-25.816,0.767c-4.866-0.071-5.954,2.188-6.103,6.232
				C364.717,329.159,364.279,336.867,363.841,345.899z"/>
			<path class="st1" d="M400.236,256.598c-4.254-0.371-9.529-0.763-14.789-1.305c-13.121-1.352-21.612-13.04-23.251-23.603
				c-1.274-8.208-1.133-16.237,1.374-23.933c3.006-9.227,11.297-12.839,19.622-16.087c3.177-1.239,6.2-2.872,9.29-4.332
				c1.042-0.492,2.052-1.394,3.112-1.451c9.972-0.53,20.343-1.157,28.676,5.204c10.015,7.645,18.013,17.535,16.414,31.04
				c-0.749,6.322-4.159,12.876-7.979,18.155c-5.185,7.165-11.318,14.108-20.996,15.572
				C408.282,256.376,404.769,256.325,400.236,256.598z M380.023,222.352c0,1.495-0.023,2.99,0.004,4.484
				c0.126,6.952,1.769,9.366,8.426,10.47c5.343,0.886,10.82,1.234,16.244,1.296c9.289,0.106,13.515-6.717,16.989-13.756
				c3.151-6.384-0.385-11.787-4.083-16.716c-2.787-3.714-15.316-6.073-18.934-4c-2.974,1.704-5.917,3.581-9.102,4.774
				C380.064,212.462,380.021,212.345,380.023,222.352z"/>
			<path class="st1" d="M444.654,96.971c-0.969,2.24-1.369,3.898-2.291,5.181c-9.857,13.72-22.394,24.752-35.931,34.601
				c-2.081,1.514-6.743,1.474-9.159,0.183c-9.147-4.885-17.77-10.74-26.774-15.91c-5.16-2.963-10.451-5.254-13.243-11.273
				c-2.415-5.206-2.596-7.738,1.548-11.879c8.075-8.07,16.171-16.119,24.195-24.24c1.616-1.636,2.937-3.561,4.418-5.332
				c5.129-6.134,11.459-7.69,17.919-3.235c11.801,8.139,23.276,16.761,34.692,25.439C442.078,92.064,443.187,94.857,444.654,96.971z
				 M377.72,104.665c7.736,4.71,14.699,9.016,21.762,13.15c0.758,0.443,2.433,0.293,3.12-0.269
				c6.819-5.578,14.507-10.29,19.126-18.143c-7.127-5.516-13.955-10.928-20.987-16.061c-0.774-0.565-3.217-0.014-4.036,0.837
				C390.428,90.709,384.362,97.441,377.72,104.665z"/>
			<path class="st1" d="M398.272,172.318c-4.395,0.049-8.987-4.588-8.888-8.974c0.096-4.218,4.513-8.593,8.723-8.64
				c4.395-0.049,8.987,4.588,8.888,8.975C406.899,167.898,402.484,172.271,398.272,172.318z"/>
			<path class="st1" d="M408.995,281.648c-0.078,4.211-4.486,8.606-8.695,8.669c-4.39,0.065-8.999-4.558-8.917-8.945
				c0.078-4.211,4.486-8.606,8.695-8.668C404.468,272.639,409.076,277.26,408.995,281.648z"/>
			<path class="st1" d="M199.141,254.188c-13.031-0.955-26.095-1.612-39.074-3.039c-4.09-0.45-8.192-2.541-11.869-4.622
				c-6.417-3.632-13.093-7.182-18.532-12.032c-3.711-3.309-6.095-8.541-7.958-13.345c-1.379-3.557-1.285-7.808-1.299-11.752
				c-0.099-26.643-0.287-53.29,0.105-79.928c0.105-7.153,1.036-14.688,3.531-21.315c3.252-8.636,10.864-13.973,19.913-15.262
				c10.603-1.511,21.416-1.558,32.14-2.207c6.11-0.37,12.226-0.963,18.337-0.934c7.946,0.038,15.887,0.745,23.834,0.863
				c3.942,0.059,7.894-0.564,11.842-0.864c5.739-0.437,10.199,1.665,14.804,5.333c8.704,6.933,13.844,16.078,18.487,25.706
				c0.966,2.003,1.388,4.384,1.561,6.63c0.483,6.267,0.861,12.551,0.966,18.834c0.054,3.276-0.916,6.575-0.8,9.842
				c0.446,12.565,1.48,25.117,1.643,37.682c0.13,10.029-0.361,20.031-5.181,29.382c-5.526,10.718-14.415,18.271-23.709,25.116
				c-4.199,3.093-10.317,4.298-15.722,4.866c-7.576,0.797-15.299,0.201-22.959,0.201
				C199.182,253.624,199.162,253.906,199.141,254.188z M154.368,232.179c0.386-0.329,0.773-0.657,1.159-0.986
				c-0.271-2.09-0.783-4.181-0.77-6.269c0.053-8.601,0.209-17.203,0.439-25.802c0.147-5.505,4.018-5.69,8.122-5.421
				c4.368,0.287,4.743,3.269,4.724,6.714c-0.058,10.563,0.141,21.131-0.106,31.689c-0.086,3.663,1.449,5.14,4.692,5.525
				c1.425,0.169,2.869,0.185,4.735,0.296c0-9.914,0.088-19.549-0.039-29.18c-0.06-4.556,2.052-6.131,6.41-6.133
				c4.423-0.003,6.398,1.724,6.324,6.22c-0.136,8.328-0.061,16.66-0.026,24.99c0.022,5.254,0.404,5.49,6.324,3.91
				c0-9.065-0.094-18.265,0.035-27.462c0.08-5.726,1.274-6.58,6.812-6.629c4.739-0.042,6.056,2.492,5.834,6.66
				c-0.168,3.154-0.241,6.316-0.261,9.476c-0.039,6.183-0.011,12.366-0.011,18.383c8.585,1.024,8.591,1.024,8.593-5.94
				c0.005-11.496-0.016-22.991,0.009-34.487c0.013-5.951,1.053-7.061,6.379-7.048c5.271,0.013,6.258,1.105,6.269,7.158
				c0.022,11.847,0.006,23.695,0.006,36.476c2.22-1.658,3.93-2.63,5.248-3.984c2.611-2.683,4.687-5.969,7.561-8.293
				c4.562-3.689,6.447-8.69,7.346-13.958c0.941-5.514,1.172-11.211,1.12-16.822c-0.161-17.387-1.307-34.795-0.727-52.15
				c0.516-15.444-8.773-24.724-18.385-34.202c-0.71-0.7-2.545-0.259-5.418-0.455c7.485,9.124,8.995,18.694,9.161,28.432
				c0.185,10.891-5.997,18.321-15.158,23.807c4.095,0,7.715-0.137,11.321,0.033c4.907,0.231,7.856,3.389,7.922,8.25
				c0.045,3.331,0.72,6.877-0.192,9.938c-0.965,3.239-3.002,8.001-5.411,8.576c-4.666,1.114-9.984,0.113-14.901-0.756
				c-1.873-0.331-4.665-2.576-4.831-4.178c-0.59-5.699-0.231-11.495-0.231-17.355c-16.117,2.563-32.379,2.749-46.317-9.468
				c3.637,11.983,1.887,19.106-4.892,20.53c-8.089,1.699-16.508-1.676-16.688-7.211c-0.146-4.479,0.098-9.454,1.917-13.404
				c2.973-6.457,9.929-3.099,15.527-4.287c-4.732-8.659-3.828-17.875-3.507-26.927c0.163-4.606,1.288-9.204,6.21-11.62
				c1.097-0.539,1.793-1.895,3.561-3.862c-7.19,0.554-13.163,0.204-18.655,1.663c-5.669,1.506-12.561,2.835-14.353,9.87
				c-1.372,5.39-2.078,11.085-2.13,16.653c-0.223,23.989-0.386,47.986,0.065,71.968c0.156,8.287,0.283,17.337,10.133,21.592
				C148.524,228.087,151.361,230.329,154.368,232.179z M221.819,127.231c-0.589,0.484-1.076,0.706-1.262,1.079
				c-0.283,0.568-0.423,1.23-0.512,1.868c-0.961,6.895-3.352,10.043-10.35,11.18c-5.829,0.947-11.885,0.399-17.778,1.068
				c-6.189,0.702-10.295-2.272-13.321-6.906c-2.377-3.64-3.983-7.784-5.418-10.671c-2.893,12.306,5.459,18.826,16.019,23.273
				c8.092,3.408,16.622,3.57,23.711-2.568C218.223,140.952,224.439,136.288,221.819,127.231z M198.166,129.641
				c3.474-0.329,7.789,1.303,9.23-4.035c1.77-6.555-1.128-11.065-8.01-12.154c-8.441-1.335-13.847,3.876-11.244,11.022
				C189.812,129.059,193.507,130.404,198.166,129.641z M223.017,170.296c-0.062,3.561,1.284,5.545,4.625,5.322
				c4.056-0.272,3.744-3.694,3.527-6.216c-0.119-1.387-2.152-3.781-3.144-3.694C225.423,165.936,222.174,166.567,223.017,170.296z
				 M161.766,160.205c-1.835-1.706-2.938-2.731-4.041-3.756c-0.879,1.387-2.294,2.721-2.441,4.181
				c-0.09,0.899,1.64,2.574,2.771,2.798C158.83,163.582,159.981,161.836,161.766,160.205z"/>
			<path class="st1" d="M169.906,282.681c10.881-0.002,21.762-0.014,32.643,0.003c6.846,0.01,8.987,2.315,8.451,9.016
				c-1.122,14.029-6.682,21.433-19.244,24.062c-8.705,1.821-17.423,0.707-25.764-2.651c-6.655-2.679-7.493-9.189-9.466-14.774
				c-1.015-2.874-0.874-6.173-1.148-9.29c-0.383-4.348,1.492-6.585,6.043-6.386C164.243,282.783,167.077,282.683,169.906,282.681z
				 M195.816,295.885c-8.757,0-17.151,0-25.721,0c2.209,5.934,5.437,7.734,13.211,7.792
				C190.066,303.729,193.591,301.582,195.816,295.885z"/>
			<path class="st1" d="M410.996,221.62c-0.062,4.209-4.455,8.618-8.666,8.697c-4.387,0.082-9.011-4.526-8.947-8.916
				c0.062-4.209,4.456-8.618,8.667-8.696C406.437,212.623,411.06,217.229,410.996,221.62z"/>
			<path class="st1" d="M400.272,110.318c-4.395,0.049-8.987-4.588-8.888-8.974c0.096-4.218,4.513-8.593,8.723-8.64
				c4.395-0.049,8.987,4.588,8.888,8.975C408.898,105.899,404.484,110.271,400.272,110.318z"/>
			<path class="st1" d="M192.893,163.679c8.258-1.567,12.387,6.695,12.107,15.464c-0.279,8.714-3.568,13.198-11.648,13.212
				c-11.255,0.02-16.985-5.727-16.993-17.252C176.352,166.935,181.078,163.67,192.893,163.679z M193.104,182.706
				c0.699-0.999,2.975-2.812,2.844-4.43c-0.165-2.036-2.248-5.469-3.595-5.513c-2.351-0.078-6.126,1.43-6.857,3.254
				C184.306,178.987,188.163,182.574,193.104,182.706z"/>
			<path class="st1" d="M148.278,137.342c-7.402,1.543-11.245-4.41-11.137-12.781c0.106-8.151,2.35-10.339,11.047-10.797
				c7.191-0.379,12.079,4.662,11.758,12.115C159.508,136.063,157.089,138.166,148.278,137.342z M148.599,122.314
				c-0.868,0.29-1.735,0.58-2.603,0.871c0.546,1.728,1.092,3.456,1.637,5.184c0.948-0.336,1.895-0.673,2.843-1.009
				C149.851,125.677,149.225,123.995,148.599,122.314z"/>
		</g>
	</g>
	<g>
		<path class="st1" d="M568.503,200.922V95.062h22.446v105.86H568.503z"/>
		<path class="st1" d="M688.338,200.922h-22.084V153.64c0-5.84-0.978-10.221-2.933-13.142c-1.955-2.92-5.032-4.38-9.232-4.38
			c-5.647,0-9.751,2.076-12.31,6.227c-2.559,4.152-3.837,10.982-3.837,20.491v38.086h-22.085v-80.952h16.871l2.969,10.354h1.231
			c2.172-3.716,5.31-6.625,9.413-8.725c4.102-2.1,8.809-3.15,14.119-3.15c12.116,0,20.321,3.959,24.618,11.875h1.955
			c2.173-3.765,5.37-6.685,9.595-8.761c4.223-2.075,8.989-3.114,14.3-3.114c9.171,0,16.111,2.354,20.817,7.06
			c4.707,4.707,7.06,12.25,7.06,22.627v52.785h-22.156V153.64c0-5.84-0.978-10.221-2.933-13.142c-1.955-2.92-5.032-4.38-9.232-4.38
			c-5.406,0-9.449,1.931-12.128,5.792c-2.679,3.862-4.019,9.992-4.019,18.392V200.922z"/>
		<path class="st1" d="M760.528,99.045c0-7.192,4.007-10.789,12.021-10.789c8.012,0,12.02,3.597,12.02,10.789
			c0,3.428-1.003,6.095-3.005,8.001c-2.004,1.907-5.009,2.86-9.015,2.86C764.535,109.906,760.528,106.286,760.528,99.045z
			 M783.554,200.922h-22.085v-80.952h22.085V200.922z"/>
		<path class="st1" d="M823.306,159.578l-26.067-39.607h25.054l15.712,25.777l15.857-25.777h25.053l-26.356,39.607l27.588,41.345
			H855.02l-17.016-27.732l-17.088,27.732h-25.054L823.306,159.578z"/>
		<path class="st1" d="M948.933,176.883c0,8.303-2.885,14.626-8.653,18.971c-5.769,4.344-14.397,6.517-25.886,6.517
			c-5.89,0-10.909-0.398-15.061-1.195c-4.152-0.796-8.037-1.966-11.657-3.512v-18.247c4.102,1.931,8.725,3.548,13.866,4.851
			c5.141,1.303,9.666,1.955,13.576,1.955c8.013,0,12.02-2.317,12.02-6.951c0-1.738-0.532-3.15-1.593-4.236
			c-1.062-1.086-2.896-2.317-5.503-3.693c-2.607-1.375-6.082-2.98-10.427-4.815c-6.228-2.607-10.802-5.02-13.722-7.241
			c-2.921-2.22-5.045-4.767-6.372-7.639c-1.328-2.872-1.991-6.408-1.991-10.608c0-7.192,2.788-12.755,8.363-16.69
			c5.575-3.934,13.479-5.901,23.714-5.901c9.75,0,19.235,2.125,28.456,6.372l-6.661,15.93c-4.055-1.738-7.846-3.161-11.368-4.272
			c-3.524-1.11-7.121-1.666-10.789-1.666c-6.517,0-9.775,1.763-9.775,5.286c0,1.979,1.051,3.692,3.15,5.141
			s6.697,3.597,13.794,6.444c6.323,2.559,10.957,4.949,13.901,7.168c2.944,2.221,5.116,4.779,6.518,7.675
			C948.233,169.425,948.933,172.877,948.933,176.883z"/>
		<path class="st1" d="M671.611,340.922h-25.559l-14.338-55.609c-0.531-1.979-1.438-6.069-2.715-12.272
			c-1.279-6.202-2.016-10.366-2.209-12.491c-0.289,2.607-1.014,6.796-2.172,12.563c-1.158,5.769-2.053,9.884-2.68,12.346
			l-14.264,55.464h-25.487l-27.008-105.86h22.084l13.54,57.781c2.365,10.669,4.078,19.912,5.141,27.732
			c0.291-2.751,0.953-7.011,1.992-12.78c1.037-5.768,2.014-10.245,2.932-13.432l15.424-59.302h21.215l15.422,59.302
			c0.676,2.655,1.521,6.711,2.535,12.165c1.014,5.455,1.785,10.137,2.316,14.047c0.482-3.765,1.256-8.459,2.318-14.083
			c1.061-5.623,2.027-10.174,2.896-13.649l13.467-57.781h22.084L671.611,340.922z"/>
		<path class="st1" d="M783.699,300.301c0,13.179-3.476,23.485-10.427,30.918c-6.951,7.435-16.63,11.151-29.035,11.151
			c-7.772,0-14.627-1.702-20.564-5.104c-5.937-3.403-10.499-8.291-13.685-14.663s-4.779-13.805-4.779-22.302
			c0-13.226,3.451-23.507,10.354-30.846c6.902-7.337,16.605-11.006,29.108-11.006c7.771,0,14.626,1.69,20.563,5.068
			c5.938,3.38,10.499,8.231,13.686,14.555C782.106,284.397,783.699,291.806,783.699,300.301z M727.728,300.301
			c0,8.014,1.314,14.072,3.946,18.175c2.63,4.104,6.914,6.154,12.852,6.154c5.89,0,10.125-2.038,12.708-6.118
			c2.582-4.079,3.874-10.148,3.874-18.211c0-8.012-1.304-14.021-3.91-18.029c-2.606-4.006-6.879-6.01-12.816-6.01
			c-5.89,0-10.137,1.991-12.743,5.974C729.031,286.218,727.728,292.241,727.728,300.301z"/>
		<path class="st1" d="M847.128,258.45c2.992,0,5.479,0.218,7.458,0.652l-1.665,20.708c-1.787-0.481-3.959-0.724-6.517-0.724
			c-7.049,0-12.539,1.81-16.473,5.431c-3.936,3.62-5.901,8.688-5.901,15.205v41.2h-22.085V259.97h16.727l3.258,13.613h1.087
			c2.509-4.537,5.9-8.193,10.173-10.97C837.462,259.838,842.107,258.45,847.128,258.45z"/>
		<path class="st1" d="M890.501,296.899l9.63-12.31l22.664-24.619h24.908l-32.149,35.118l34.104,45.834h-25.487l-23.315-32.801
			l-9.485,7.603v25.198h-22.085V228.256h22.085v50.251l-1.159,18.392H890.501z"/>
		<path class="st1" d="M1005.99,276.552h-19.115v64.37H964.79v-64.37h-12.164v-10.645l12.164-5.938v-5.938
			c0-9.219,2.269-15.953,6.807-20.201c4.537-4.247,11.803-6.372,21.795-6.372c7.627,0,14.409,1.135,20.347,3.403l-5.648,16.219
			c-4.441-1.399-8.544-2.1-12.309-2.1c-3.139,0-5.407,0.93-6.807,2.788c-1.4,1.858-2.1,4.235-2.1,7.132v5.068h19.115V276.552z
			 M1040.746,340.922h-22.084V228.256h22.084V340.922z"/>
		<path class="st1" d="M1137.411,300.301c0,13.179-3.476,23.485-10.427,30.918c-6.951,7.435-16.63,11.151-29.035,11.151
			c-7.772,0-14.627-1.702-20.564-5.104c-5.937-3.403-10.499-8.291-13.685-14.663s-4.779-13.805-4.779-22.302
			c0-13.226,3.451-23.507,10.354-30.846c6.902-7.337,16.605-11.006,29.108-11.006c7.771,0,14.626,1.69,20.563,5.068
			c5.938,3.38,10.499,8.231,13.686,14.555C1135.818,284.397,1137.411,291.806,1137.411,300.301z M1081.44,300.301
			c0,8.014,1.314,14.072,3.946,18.175c2.63,4.104,6.914,6.154,12.852,6.154c5.89,0,10.125-2.038,12.708-6.118
			c2.582-4.079,3.874-10.148,3.874-18.211c0-8.012-1.304-14.021-3.91-18.029c-2.606-4.006-6.879-6.01-12.816-6.01
			c-5.89,0-10.137,1.991-12.743,5.974C1082.743,286.218,1081.44,292.241,1081.44,300.301z"/>
		<path class="st1" d="M1222.2,340.922l-6.227-28.312l-8.399-35.77h-0.507l-14.771,64.081h-23.75l-23.025-80.952h22.012
			l9.341,35.842c1.495,6.421,3.017,15.278,4.562,26.574h0.435c0.192-3.668,1.037-9.485,2.534-17.45l1.158-6.155l9.992-38.811h24.329
			l9.485,38.811c0.192,1.062,0.495,2.632,0.905,4.707c0.41,2.076,0.808,4.284,1.195,6.625c0.386,2.342,0.735,4.634,1.05,6.879
			c0.313,2.244,0.494,4.043,0.543,5.395h0.435c0.435-3.476,1.206-8.242,2.316-14.301c1.11-6.058,1.906-10.148,2.39-12.273
			l9.703-35.842h21.649l-23.315,80.952H1222.2z"/>
	</g>
	<line class="st2" x1="500.057" y1="27.529" x2="500.057" y2="408.585"/>
</g>
</svg>
