<?xml version="1.0" encoding="utf-8"?>
<!-- Generator: Adobe Illustrator 27.8.0, SVG Export Plug-In . SVG Version: 6.00 Build 0)  -->
<svg version="1.1" id="Calque_1" xmlns="http://www.w3.org/2000/svg" xmlns:xlink="http://www.w3.org/1999/xlink" x="0px" y="0px"
	 viewBox="0 0 607.647 607.647" style="enable-background:new 0 0 607.647 607.647;" xml:space="preserve">
<style type="text/css">
	.st0{fill:#FCB802;}
	.st1{fill:#2F2F2F;}
	.st2{fill:none;stroke:#2F2F2F;stroke-width:7;stroke-miterlimit:10;}
</style>
<g>
	<path class="st0" d="M497.588,603.471H110.059c-58.477,0-105.882-47.405-105.882-105.882v-387.53
		c0-58.477,47.405-105.882,105.882-105.882h387.529c58.477,0,105.882,47.405,105.882,105.882v387.529
		C603.471,556.065,556.065,603.471,497.588,603.471z"/>
	<g>
		<g>
			<path class="st1" d="M307.399,267.419c8.705,5.113,10.817,13.655,12.697,22.284c3.603,16.538,1.92,33.324,1.89,49.988
				c-0.029,16.27-16.57,32.263-32.811,32.376c-10.612,0.074-21.273-0.136-31.822-1.154c-4.332-0.418-8.427-3.294-12.496-4.996
				c-14.334,13.514-31.535,10.393-48.219,6.681c-4.911-1.093-8.806-6.748-13.428-10.526c-14.132,3.461-29.392,4.271-43.964-2.008
				c-7.482-3.224-12.675-9.966-15.746-17.729c-5.277-13.339-4.069-27.391-3.859-41.259c0.101-6.667,1.122-13.326,1.838-19.976
				c0.737-6.845,3.494-12.543,9.531-16.367c1.776-1.125,3.335-2.592,5.387-4.213c-8.263-5.451-14.538-12.227-16.093-21.433
				c-1.522-9.006-1.264-18.322-1.646-27.508c-0.211-5.063-0.241-10.139-0.162-15.206c0.283-18.283,0.48-36.571,1.049-54.846
				c0.293-9.41,0.386-18.982,2.22-28.15c2.259-11.291,9.68-19.95,18.167-27.51c4.033-3.593,8.08-7.198,12.37-10.47
				c9.49-7.238,20.737-6.702,31.804-6.732c9.078-0.024,18.157,0.042,27.235,0.038c1.66-0.001,3.32-0.207,4.98-0.209
				c17.998-0.016,35.997-0.113,53.993,0.037c8.119,0.067,16.505-0.499,24.263,1.348c5.893,1.403,12.029,5.196,16.186,9.665
				c5.977,6.426,10.483,14.292,15.146,21.834c1.914,3.096,3.442,6.894,3.682,10.47c0.65,9.688,0.456,19.43,0.726,29.148
				c0.091,3.284,0.796,6.555,0.832,9.837c0.161,14.571,0.125,29.143,0.282,43.714c0.053,4.953,0.72,9.905,0.65,14.851
				c-0.111,7.846,0.816,16.094-1.285,23.43c-2.863,9.997-7.785,19.487-16.152,26.581
				C312.047,261.613,310.019,264.483,307.399,267.419z M303.475,320.19c1.715-11.887-1.813-22.87-5.816-33.774
				c-2.086-5.683-5.994-8.478-11.919-8.225c-2.125,0.091-4.224,0.675-6.346,0.936c-4.973,0.611-7.18,3.054-7.253,8.141
				c-0.04,2.832,0.263,5.716-0.165,8.487c-1.516,9.811,3.209,18.406,12.188,21.241c2.782,0.878,4.981,2.345,3.719,5.157
				c-0.79,1.761-3.421,3.715-5.27,3.761c-3.358,0.083-6.722-1.407-10.134-1.857c-7.362-0.972-11.103-5.706-11.906-12.401
				c-1.139-9.495-2.464-19.176-1.712-28.618c0.51-6.4,3.464-13.157,10.748-16.098c5.17-2.087,10.861-3.583,15.216-6.824
				c6.71-4.994,12.634-11.1,18.592-17.034c4.915-4.895,7.957-11.173,8.873-17.907c1.047-7.688,1.046-15.543,1.139-23.33
				c0.162-13.497,0.119-26.998-0.007-40.496c-0.032-3.448-0.789-6.884-1.053-10.338c-0.353-4.608-1.501-9.413-0.647-13.811
				c3.614-18.604-4.753-32.672-16.46-45.503c-1.712-1.876-4.862-3.232-7.435-3.392c-10.929-0.68-21.893-1.139-32.841-1.087
				c-21.451,0.102-42.899,0.619-64.349,0.919c-6.062,0.085-12.167-0.397-18.175,0.182c-3.255,0.314-6.781,1.73-9.418,3.683
				c-4.867,3.604-9.338,7.799-13.664,12.061c-5.345,5.265-9.927,11.232-10.175,19.122c-0.529,16.845-0.689,33.701-1.086,50.551
				c-0.172,7.282-0.801,14.56-0.785,21.839c0.02,9.183,0.497,18.365,0.737,27.549c0.017,0.636-0.426,1.279-0.43,1.92
				c-0.045,6.979,1.192,13.267,7.599,17.652c3.202,2.192,5.62,5.493,8.633,8.004c3.317,2.763,3.804,8.858,9.724,8.503
				c5.215-0.313,9.19,2.113,13.579,4.607c6.182,3.513,8.461,8.794,9.984,15.022c1.657,6.774,0.173,13.244-0.804,19.988
				c-3.005,20.736-16.537,25.229-31.752,23.081c-2.606-0.368-4.994-2.191-3.895-5.177c0.527-1.433,2.902-3.035,4.482-3.08
				c6.01-0.169,10.739-2.603,13.885-7.458c3.831-5.912,5.822-12.527,5.439-19.705c-0.371-6.952-5.955-13.971-12.16-15.241
				c-6.272-1.284-16.536,3.004-18.43,8.854c-2.299,7.099-3.404,14.607-4.711,21.994c-0.516,2.915-0.294,5.982-0.217,8.975
				c0.159,6.208-0.256,12.542,0.849,18.589c1.57,8.588,8.617,12.25,16.132,14.925c9.326,3.32,14.877,1.15,19.366-7.44
				c0.601-1.15,1.325-2.447,2.355-3.126c3.896-2.568,5.241-6.035,4.86-10.61c-0.268-3.212,1.721-4.725,4.93-4.927
				c6.104-0.383,7.391,0.998,7.699,7.305c0.444,9.073,1.286,18.125,1.866,27.192c0.293,4.58,3.288,7.331,7.102,7.883
				c6.461,0.935,13.094,1.094,19.638,0.933c6.989-0.171,10.266-5.397,11.399-11.274c1.4-7.263,1.743-14.752,2.21-22.164
				c0.23-3.642,0.459-6.697,5.139-6.874c4.542-0.172,7.71,1.996,7.424,6.56c-0.414,6.628,2.635,11.446,5.334,17.132
				c3.324,7.002,8.359,7.37,14.09,8.292c0.98,0.158,2.004,0.077,2.972,0.28c17.113,3.578,31.111-7.683,31.112-25.052
				C303.475,325.856,303.475,323.023,303.475,320.19z"/>
			<path class="st1" d="M429.146,368.787c-7.184,0.724-14.917,1.375-22.616,2.308c-13.147,1.594-24.114-11.028-22.023-25.132
				c1.014-6.839,0.874-13.865,2.113-20.651c1.014-5.554,2.603-11.238,5.193-16.21c3.305-6.343,10.474-4.599,16.119-5.484
				c5.693-0.893,11.553-1.152,17.323-1.018c7.086,0.165,14.147,1.18,21.234,1.54c6.307,0.32,12.649,0.018,18.949,0.411
				c6.426,0.4,12.481,1.45,17.702,6.319c6.053,5.645,6.265,12.4,5.97,19.618c-0.311,7.615-1.409,15.292-0.783,22.827
				c0.813,9.793-10.363,21.17-19.743,19.879c-9.469-1.303-18.986-2.257-28.486-3.33
				C436.654,369.475,433.198,369.182,429.146,368.787z M402.959,352.706c5.983-0.397,12.179-0.895,18.385-1.202
				c14.452-0.716,28.705,0.808,42.835,3.841c4.995,1.072,6.164-0.137,6.317-5.263c0.229-7.672,0.76-15.339,0.764-23.009
				c0.001-1.305-1.899-3.651-3.077-3.755c-10.695-0.945-21.416-1.831-32.145-2.063c-8.595-0.186-17.216,0.891-25.816,0.767
				c-4.866-0.071-5.954,2.188-6.103,6.232C403.835,335.966,403.397,343.674,402.959,352.706z"/>
			<path class="st1" d="M439.354,263.405c-4.254-0.371-9.529-0.763-14.789-1.305c-13.121-1.352-21.612-13.04-23.251-23.603
				c-1.274-8.208-1.133-16.237,1.374-23.933c3.006-9.227,11.297-12.839,19.622-16.087c3.177-1.239,6.2-2.872,9.29-4.332
				c1.042-0.492,2.052-1.394,3.112-1.451c9.972-0.53,20.343-1.157,28.676,5.204c10.015,7.645,18.013,17.535,16.414,31.04
				c-0.749,6.322-4.159,12.876-7.979,18.155c-5.185,7.165-11.318,14.108-20.996,15.572
				C447.4,263.183,443.887,263.132,439.354,263.405z M419.141,229.159c0,1.495-0.023,2.99,0.004,4.484
				c0.126,6.952,1.769,9.366,8.426,10.47c5.343,0.886,10.82,1.234,16.244,1.296c9.289,0.106,13.515-6.717,16.989-13.756
				c3.151-6.384-0.385-11.787-4.083-16.716c-2.787-3.714-15.316-6.073-18.934-4c-2.974,1.704-5.917,3.581-9.102,4.774
				C419.182,219.269,419.138,219.152,419.141,229.159z"/>
			<path class="st1" d="M483.772,103.778c-0.969,2.24-1.369,3.898-2.291,5.181c-9.857,13.72-22.394,24.752-35.931,34.601
				c-2.081,1.514-6.743,1.474-9.159,0.183c-9.147-4.885-17.77-10.74-26.774-15.91c-5.16-2.963-10.451-5.254-13.243-11.273
				c-2.415-5.206-2.596-7.738,1.548-11.879c8.075-8.07,16.171-16.119,24.195-24.24c1.616-1.636,2.937-3.561,4.418-5.332
				c5.129-6.134,11.459-7.69,17.919-3.235c11.801,8.139,23.276,16.761,34.692,25.439
				C481.195,98.871,482.305,101.664,483.772,103.778z M416.838,111.472c7.736,4.71,14.699,9.016,21.762,13.15
				c0.758,0.443,2.433,0.293,3.12-0.269c6.819-5.578,14.507-10.29,19.126-18.143c-7.127-5.516-13.955-10.928-20.987-16.061
				c-0.774-0.565-3.217-0.014-4.036,0.837C429.546,97.516,423.48,104.248,416.838,111.472z"/>
			<path class="st1" d="M437.389,179.125c-4.395,0.049-8.987-4.588-8.888-8.974c0.096-4.218,4.513-8.593,8.723-8.64
				c4.395-0.049,8.987,4.588,8.888,8.975C446.016,174.705,441.602,179.078,437.389,179.125z"/>
			<path class="st1" d="M448.113,288.455c-0.078,4.211-4.486,8.606-8.695,8.669c-4.39,0.065-8.999-4.558-8.917-8.945
				c0.078-4.211,4.486-8.606,8.695-8.668C443.586,279.446,448.193,284.067,448.113,288.455z"/>
			<path class="st1" d="M238.259,260.995c-13.031-0.955-26.095-1.612-39.074-3.039c-4.09-0.45-8.192-2.541-11.869-4.622
				c-6.417-3.632-13.093-7.182-18.532-12.032c-3.711-3.309-6.095-8.541-7.958-13.345c-1.379-3.557-1.285-7.808-1.299-11.752
				c-0.099-26.643-0.287-53.29,0.105-79.928c0.105-7.153,1.036-14.688,3.531-21.315c3.252-8.636,10.864-13.973,19.913-15.262
				c10.603-1.511,21.416-1.558,32.14-2.207c6.11-0.37,12.226-0.963,18.337-0.934c7.946,0.038,15.887,0.745,23.834,0.863
				c3.942,0.059,7.894-0.564,11.842-0.864c5.739-0.437,10.199,1.665,14.804,5.333c8.704,6.933,13.844,16.078,18.487,25.706
				c0.966,2.003,1.388,4.384,1.561,6.63c0.483,6.267,0.861,12.551,0.966,18.834c0.054,3.276-0.916,6.575-0.8,9.842
				c0.446,12.565,1.48,25.117,1.643,37.682c0.13,10.029-0.361,20.031-5.181,29.382c-5.526,10.718-14.415,18.271-23.709,25.116
				c-4.199,3.093-10.317,4.298-15.721,4.866c-7.576,0.797-15.299,0.201-22.959,0.201C238.3,260.431,238.279,260.713,238.259,260.995
				z M193.485,238.986c0.386-0.329,0.773-0.657,1.159-0.986c-0.271-2.09-0.783-4.181-0.77-6.269
				c0.053-8.601,0.209-17.203,0.439-25.802c0.147-5.505,4.018-5.69,8.122-5.421c4.368,0.287,4.743,3.269,4.724,6.714
				c-0.058,10.563,0.141,21.131-0.106,31.689c-0.086,3.663,1.449,5.14,4.692,5.525c1.425,0.169,2.869,0.185,4.735,0.296
				c0-9.914,0.088-19.549-0.039-29.18c-0.06-4.556,2.052-6.131,6.41-6.133c4.423-0.003,6.398,1.724,6.324,6.22
				c-0.136,8.328-0.061,16.66-0.026,24.99c0.022,5.254,0.404,5.49,6.324,3.91c0-9.065-0.094-18.265,0.035-27.462
				c0.08-5.726,1.274-6.58,6.812-6.629c4.739-0.042,6.056,2.492,5.834,6.66c-0.168,3.154-0.241,6.316-0.261,9.476
				c-0.039,6.183-0.011,12.366-0.011,18.383c8.585,1.024,8.591,1.024,8.593-5.94c0.005-11.496-0.016-22.991,0.009-34.487
				c0.013-5.951,1.053-7.061,6.379-7.048c5.271,0.013,6.258,1.105,6.269,7.158c0.022,11.847,0.006,23.695,0.006,36.476
				c2.22-1.658,3.93-2.63,5.248-3.984c2.611-2.683,4.687-5.969,7.561-8.293c4.562-3.689,6.447-8.69,7.346-13.958
				c0.941-5.514,1.172-11.211,1.12-16.822c-0.161-17.387-1.307-34.795-0.727-52.15c0.516-15.444-8.773-24.724-18.385-34.202
				c-0.71-0.7-2.545-0.259-5.418-0.455c7.485,9.124,8.995,18.694,9.161,28.432c0.185,10.891-5.997,18.321-15.158,23.807
				c4.095,0,7.715-0.137,11.321,0.033c4.907,0.231,7.856,3.389,7.922,8.25c0.045,3.331,0.72,6.877-0.192,9.938
				c-0.965,3.239-3.002,8.001-5.411,8.576c-4.666,1.114-9.984,0.113-14.901-0.756c-1.873-0.331-4.665-2.576-4.831-4.178
				c-0.59-5.699-0.231-11.495-0.231-17.355c-16.117,2.563-32.379,2.749-46.317-9.468c3.637,11.983,1.887,19.106-4.892,20.53
				c-8.089,1.699-16.508-1.676-16.688-7.211c-0.146-4.479,0.098-9.454,1.917-13.404c2.973-6.457,9.929-3.099,15.527-4.287
				c-4.732-8.659-3.828-17.875-3.507-26.927c0.163-4.606,1.288-9.204,6.21-11.62c1.097-0.539,1.793-1.895,3.561-3.862
				c-7.19,0.554-13.163,0.204-18.655,1.663c-5.669,1.506-12.561,2.835-14.353,9.87c-1.372,5.39-2.078,11.085-2.13,16.653
				c-0.223,23.989-0.386,47.986,0.065,71.968c0.156,8.287,0.283,17.337,10.133,21.592
				C187.642,234.894,190.479,237.136,193.485,238.986z M260.937,134.038c-0.589,0.484-1.076,0.706-1.262,1.079
				c-0.283,0.568-0.423,1.23-0.512,1.868c-0.961,6.895-3.352,10.043-10.35,11.18c-5.829,0.947-11.885,0.399-17.778,1.068
				c-6.189,0.702-10.295-2.272-13.321-6.906c-2.377-3.64-3.983-7.784-5.418-10.671c-2.893,12.306,5.459,18.826,16.019,23.273
				c8.092,3.408,16.622,3.57,23.711-2.568C257.34,147.759,263.557,143.095,260.937,134.038z M237.284,136.448
				c3.474-0.329,7.789,1.303,9.23-4.035c1.77-6.555-1.128-11.065-8.01-12.154c-8.441-1.335-13.847,3.876-11.244,11.022
				C228.93,135.866,232.625,137.21,237.284,136.448z M262.135,177.103c-0.062,3.561,1.284,5.545,4.625,5.322
				c4.056-0.272,3.744-3.694,3.527-6.216c-0.119-1.387-2.152-3.781-3.144-3.694C264.54,172.743,261.291,173.374,262.135,177.103z
				 M200.884,167.012c-1.835-1.706-2.938-2.731-4.041-3.756c-0.879,1.387-2.294,2.721-2.441,4.181
				c-0.09,0.899,1.64,2.574,2.771,2.798C197.948,170.389,199.098,168.643,200.884,167.012z"/>
			<path class="st1" d="M209.023,289.488c10.881-0.002,21.762-0.014,32.643,0.003c6.846,0.01,8.987,2.315,8.451,9.016
				c-1.122,14.029-6.682,21.433-19.244,24.062c-8.705,1.821-17.423,0.707-25.764-2.651c-6.655-2.679-7.493-9.189-9.466-14.774
				c-1.015-2.874-0.874-6.173-1.148-9.29c-0.383-4.348,1.492-6.585,6.043-6.386C203.361,289.59,206.194,289.49,209.023,289.488z
				 M234.933,302.692c-8.757,0-17.151,0-25.721,0c2.209,5.934,5.437,7.734,13.211,7.792
				C229.183,310.535,232.709,308.389,234.933,302.692z"/>
			<path class="st1" d="M450.113,228.427c-0.062,4.209-4.455,8.618-8.666,8.697c-4.387,0.082-9.011-4.526-8.947-8.916
				c0.062-4.209,4.456-8.618,8.667-8.696C445.555,219.43,450.178,224.036,450.113,228.427z"/>
			<path class="st1" d="M439.389,117.125c-4.395,0.049-8.987-4.588-8.888-8.974c0.096-4.218,4.513-8.593,8.723-8.64
				c4.395-0.049,8.987,4.588,8.888,8.975C448.016,112.705,443.602,117.078,439.389,117.125z"/>
			<path class="st1" d="M232.011,170.486c8.258-1.567,12.387,6.695,12.107,15.464c-0.279,8.714-3.568,13.198-11.648,13.212
				c-11.255,0.02-16.985-5.727-16.993-17.252C215.47,173.742,220.196,170.477,232.011,170.486z M232.222,189.513
				c0.699-0.999,2.975-2.812,2.844-4.43c-0.165-2.036-2.248-5.469-3.595-5.513c-2.351-0.078-6.126,1.43-6.857,3.254
				C223.424,185.794,227.28,189.381,232.222,189.513z"/>
			<path class="st1" d="M187.396,144.149c-7.402,1.543-11.245-4.41-11.137-12.781c0.106-8.151,2.35-10.339,11.047-10.797
				c7.191-0.379,12.079,4.662,11.758,12.115C198.626,142.87,196.206,144.973,187.396,144.149z M187.717,129.121
				c-0.868,0.29-1.735,0.58-2.603,0.871c0.546,1.728,1.092,3.456,1.637,5.184c0.948-0.336,1.895-0.673,2.843-1.009
				C188.969,132.484,188.343,130.802,187.717,129.121z"/>
		</g>
	</g>
	<g>
		<path class="st1" d="M119.305,528.693v-102.69h21.774v102.69H119.305z"/>
		<path class="st1" d="M235.551,528.693h-21.423v-45.866c0-5.665-0.949-9.915-2.844-12.748c-1.897-2.833-4.882-4.25-8.956-4.25
			c-5.479,0-9.459,2.014-11.941,6.041c-2.483,4.028-3.723,10.653-3.723,19.878v36.946h-21.423v-78.527h16.366l2.88,10.044h1.194
			c2.107-3.605,5.151-6.427,9.131-8.463c3.98-2.037,8.545-3.056,13.697-3.056c11.752,0,19.712,3.84,23.881,11.519h1.897
			c2.107-3.652,5.209-6.485,9.306-8.499c4.097-2.013,8.721-3.021,13.872-3.021c8.896,0,15.628,2.283,20.194,6.848
			c4.566,4.566,6.848,11.882,6.848,21.95v51.204h-21.493v-45.866c0-5.665-0.948-9.915-2.845-12.748
			c-1.897-2.833-4.881-4.25-8.956-4.25c-5.245,0-9.166,1.874-11.764,5.62c-2.599,3.746-3.898,9.693-3.898,17.841L235.551,528.693
			L235.551,528.693z"/>
		<path class="st1" d="M305.58,429.867c0-6.977,3.886-10.466,11.659-10.466s11.66,3.489,11.66,10.466
			c0,3.325-0.973,5.912-2.915,7.761c-1.944,1.851-4.859,2.774-8.746,2.774C309.466,440.402,305.58,436.89,305.58,429.867z
			 M327.915,528.693h-21.423v-78.527h21.423V528.693z"/>
		<path class="st1" d="M366.476,488.586l-25.286-38.421h24.302l15.242,25.005l15.383-25.005h24.302l-25.567,38.421l26.761,40.106
			h-24.372l-16.507-26.902l-16.577,26.902h-24.302L366.476,488.586z"/>
		<path class="st1" d="M488.342,505.373c0,8.055-2.799,14.189-8.394,18.403c-5.596,4.214-13.966,6.322-25.11,6.322
			c-5.713,0-10.583-0.386-14.61-1.159c-4.028-0.773-7.796-1.908-11.308-3.407v-17.701c3.979,1.874,8.463,3.442,13.451,4.706
			c4.986,1.264,9.376,1.897,13.17,1.897c7.772,0,11.659-2.248,11.659-6.743c0-1.685-0.515-3.056-1.545-4.109
			c-1.03-1.054-2.809-2.248-5.338-3.582c-2.528-1.335-5.9-2.892-10.115-4.671c-6.04-2.529-10.477-4.869-13.31-7.024
			c-2.833-2.153-4.894-4.624-6.181-7.411c-1.288-2.785-1.932-6.215-1.932-10.29c0-6.976,2.704-12.373,8.113-16.189
			c5.408-3.816,13.076-5.725,23.003-5.725c9.458,0,18.659,2.061,27.603,6.181l-6.462,15.453c-3.933-1.686-7.61-3.067-11.028-4.145
			c-3.418-1.076-6.907-1.615-10.465-1.615c-6.322,0-9.482,1.711-9.482,5.128c0,1.921,1.019,3.582,3.056,4.987
			c2.037,1.404,6.497,3.489,13.38,6.251c6.134,2.483,10.629,4.801,13.487,6.954c2.856,2.154,4.962,4.636,6.321,7.446
			C487.662,498.139,488.342,501.487,488.342,505.373z"/>
	</g>
	<line class="st2" x1="53.455" y1="397.634" x2="558.36" y2="397.634"/>
	<path class="st1" d="M164.693,587.258h-10.858l-6.091-23.625c-0.227-0.841-0.61-2.579-1.154-5.214
		c-0.543-2.635-0.856-4.404-0.938-5.307c-0.123,1.107-0.431,2.887-0.923,5.337c-0.492,2.451-0.872,4.199-1.139,5.245l-6.06,23.563
		h-10.828l-11.475-44.974h9.383l5.752,24.548c1.005,4.532,1.733,8.459,2.185,11.781c0.123-1.168,0.404-2.979,0.846-5.429
		c0.44-2.45,0.856-4.353,1.246-5.706l6.552-25.194h9.014l6.552,25.194c0.287,1.128,0.646,2.851,1.077,5.168s0.758,4.307,0.984,5.967
		c0.204-1.6,0.533-3.594,0.984-5.982c0.45-2.389,0.861-4.322,1.23-5.799l5.722-24.548h9.382L164.693,587.258z"/>
	<path class="st1" d="M222.022,570c0,5.6-1.477,9.978-4.43,13.136s-7.064,4.737-12.335,4.737c-3.303,0-6.214-0.723-8.736-2.169
		c-2.522-1.445-4.461-3.522-5.814-6.229s-2.03-5.864-2.03-9.475c0-5.618,1.466-9.986,4.399-13.104
		c2.933-3.117,7.055-4.676,12.366-4.676c3.302,0,6.214,0.718,8.736,2.152c2.522,1.437,4.46,3.497,5.813,6.184
		S222.022,566.392,222.022,570z M198.244,570c0,3.405,0.559,5.979,1.676,7.722c1.118,1.743,2.938,2.614,5.461,2.614
		c2.502,0,4.301-0.865,5.398-2.599c1.097-1.733,1.646-4.312,1.646-7.737c0-3.403-0.554-5.957-1.661-7.659s-2.922-2.554-5.444-2.554
		c-2.503,0-4.307,0.847-5.414,2.538C198.798,564.018,198.244,566.576,198.244,570z"/>
	<path class="st1" d="M259.679,552.221c1.271,0,2.327,0.092,3.169,0.276l-0.708,8.798c-0.759-0.205-1.682-0.308-2.769-0.308
		c-2.994,0-5.327,0.769-6.998,2.308c-1.672,1.537-2.507,3.691-2.507,6.459v17.504h-9.383v-34.392h7.106l1.384,5.783h0.462
		c1.065-1.928,2.507-3.48,4.321-4.66C255.573,552.81,257.547,552.221,259.679,552.221z"/>
	<path class="st1" d="M288.816,568.555l4.091-5.229l9.629-10.459h10.582l-13.658,14.919l14.488,19.473H303.12l-9.905-13.936
		l-4.029,3.23v10.705h-9.383v-47.865h9.383v21.349l-0.492,7.813L288.816,568.555L288.816,568.555z"/>
	<path class="st1" d="M348.591,559.91h-8.121v27.348h-9.382V559.91h-5.168v-4.521l5.168-2.522v-2.522
		c0-3.917,0.964-6.777,2.892-8.582c1.927-1.805,5.014-2.707,9.259-2.707c3.24,0,6.122,0.481,8.645,1.445l-2.399,6.891
		c-1.888-0.595-3.63-0.893-5.229-0.893c-1.334,0-2.297,0.396-2.892,1.185c-0.596,0.79-0.893,1.8-0.893,3.03v2.153h8.121v7.043
		H348.591z"/>
	<path class="st1" d="M373.357,587.258h-9.382v-47.865h9.382V587.258z"/>
	<path class="st1" d="M420.134,570c0,5.6-1.477,9.978-4.43,13.136s-7.065,4.737-12.336,4.737c-3.302,0-6.214-0.723-8.736-2.169
		c-2.522-1.445-4.46-3.522-5.813-6.229s-2.03-5.864-2.03-9.475c0-5.618,1.466-9.986,4.398-13.104s7.055-4.676,12.366-4.676
		c3.302,0,6.214,0.718,8.736,2.152c2.522,1.437,4.461,3.497,5.814,6.184S420.134,566.392,420.134,570z M396.355,570
		c0,3.405,0.559,5.979,1.677,7.722c1.117,1.743,2.938,2.614,5.46,2.614c2.502,0,4.302-0.865,5.399-2.599
		c1.097-1.733,1.646-4.312,1.646-7.737c0-3.403-0.554-5.957-1.661-7.659s-2.923-2.554-5.445-2.554c-2.502,0-4.307,0.847-5.414,2.538
		C396.908,564.018,396.355,566.576,396.355,570z"/>
	<path class="st1" d="M464.866,587.258l-2.646-12.027l-3.568-15.197h-0.216l-6.275,27.225h-10.09l-9.782-34.392h9.352l3.969,15.228
		c0.635,2.728,1.281,6.49,1.938,11.289h0.185c0.082-1.559,0.441-4.029,1.077-7.414l0.492-2.614l4.245-16.488h10.336l4.029,16.488
		c0.082,0.451,0.21,1.118,0.385,1.999c0.174,0.883,0.343,1.82,0.508,2.815c0.164,0.995,0.312,1.969,0.445,2.922
		c0.134,0.954,0.211,1.718,0.231,2.292h0.185c0.185-1.477,0.512-3.502,0.984-6.075c0.472-2.573,0.81-4.312,1.015-5.214l4.122-15.228
		h9.198l-9.905,34.392L464.866,587.258L464.866,587.258z"/>
</g>
</svg>
